<svg width="20" height="20" viewBox="0 0 20 20" fill="none" xmlns="http://www.w3.org/2000/svg">
<path d="M16.875 9.37515H4.40656L9.18094 4.82765C9.43094 4.58953 9.44062 4.1939 9.2025 3.9439C8.96469 3.69421 8.56906 3.68421 8.31875 3.92234L2.86625 9.11609C2.63031 9.35234 2.5 9.66609 2.5 10.0002C2.5 10.3339 2.63031 10.648 2.87719 10.8945L8.31906 16.0777C8.44 16.193 8.595 16.2502 8.75 16.2502C8.915 16.2502 9.08 16.1852 9.20281 16.0561C9.44094 15.8061 9.43125 15.4108 9.18125 15.1727L4.38688 10.6252H16.875C17.22 10.6252 17.5 10.3452 17.5 10.0002C17.5 9.65515 17.22 9.37515 16.875 9.37515V9.37515Z" fill="#767676"/>
</svg>
