<svg xmlns="http://www.w3.org/2000/svg" width="718" height="609.731" viewBox="0 0 718 609.731">
  <g id="B" transform="translate(-77 -235.269)">
    <g id="Scene_Plants" data-name="Scene/Plants" transform="translate(55 235)">
      <g id="Background_Shape_2" data-name="Background Shape 2" transform="translate(55 337)" opacity="0.505">
        <path id="Background_Shape" data-name="Background Shape" d="M630.16,153.8c9.19,68.74-213.675,113.577-405.5,82.286S-55.166,82.6,36.37,17.489,620.97,85.055,630.16,153.8Z" transform="translate(0 0)" fill="#f2f2f2"/>
      </g>
      <path id="Leaf_Bottom" data-name="Leaf Bottom" d="M0,260a46.774,46.774,0,0,1-1,6A17.922,17.922,0,0,0,0,260Zm-10.832-47.012c-5.818-12.326-14.116-22.979-23.677-32.458,1.911-6.943,20.49-17.785,8.743-23.526-6.238-3.035-12.155,2.853-13.171,8.813-.7,4.1.956,9.109,2.633,12.961q-4.5-4.328-9.309-8.347c-4.416-3.7-8.927-7.286-13.477-10.821,6.819-7.114,12.6-26.731,2.816-29.377-14.443-3.894-6.229,22.02-4.981,26.893a.772.772,0,0,0,.649-.285c-.056.455-.123.942-.211,1.435-8.7-6.726-17.527-13.3-26.086-20.21.708-.583,1.77-2.724,2.632-3.88a42.082,42.082,0,0,0,5.1-8.312c2.052-4.734,3.879-12.21-2.344-14.605-6.768-2.611-9.474,5.878-9.26,10.847.148,3.435,1.255,6.649,1.918,9.99.208,1.042-.131,5.8,1.193,3.695a10.144,10.144,0,0,0,.044,1.682q-2.3-1.87-4.581-3.779a1.777,1.777,0,0,0,.1-.578,1.718,1.718,0,0,0-2.542-1.488q-3.006-2.572-5.947-5.23c-4.145-3.764-8.351-7.638-12.536-11.6.822-.784.427-1.79,1.19-2.616s2.322-1.341,3.228-2.119a22.871,22.871,0,0,0,5.4-7.423c2.125-4.459,4.688-13.714-2.292-15.421-7.2-1.762-10.332,7.182-10.5,12.68a139.867,139.867,0,0,0,2.051,14.018c-7.744-7.367-15.382-15.03-22.35-22.869,1.982-.122,7.39-4.478,8.468-5.647,2.631-2.849,6.725-9.053,1.7-11.959-4.468-2.578-9.583,1.763-11.225,5.806a55.526,55.526,0,0,0-.965,9.49c-2.888-3.328-5.653-6.682-8.238-10.057q-2.587-3.366-4.874-6.922a3.235,3.235,0,0,0,.9-.988c7.144-1.6,15.745-13.329,7.073-16.8-4.128-1.65-8.3,2.42-10.109,5.668a41.933,41.933,0,0,0-1.256,6.512A135.132,135.132,0,0,1-165.713,41.24a1.576,1.576,0,0,0,1.152-1.525c3.395-2.178,6.071-3.984,8.313-7.949,1.393-2.462,3.841-8.051-.688-9.14-5.894-1.417-9.075,7.638-9.32,12.029-.029.509.05,1.984.14,3.334a1.95,1.95,0,0,0-.6.042c-1.617-5.363-2.969-10.811-4.1-16.278,3.115-1.185,2.79-17.85.557-20.108-4.992-5.056-7.916,2.779-7.452,6.815.547,4.759,2.939,8.989,5.717,12.709.3.393.218.378.259-.194a1.14,1.14,0,0,0,.307.624,72.434,72.434,0,0,0,.115,7.324,169.525,169.525,0,0,0,3.175,18.948q.513,2.272,1.137,4.5a36.977,36.977,0,0,0-7.568-4.316c-3.568-1.38-9.029-2.785-12.353.043a5.834,5.834,0,0,0-.208,8.733c2.958,2.978,8.055,2.6,11.848,2.092,1.715-.228,10.876-1.447,8.617-2.838a7.435,7.435,0,0,1,.915.379q.36,1.089.75,2.17c-.052.034-.1.071-.153.105.061-.031.1-.063.157-.094a84.537,84.537,0,0,0,10.573,20.282,19.879,19.879,0,0,0-4.828-1.022c-4.831-.355-14.731,3.9-9.028,10.012,5.468,5.856,13.137-1.136,18.931-2.348A273.561,273.561,0,0,0-129.7,107.418a1.558,1.558,0,0,0-.913.845c-2.7-1.2-5.533-2.958-7.991-3.347-3.547-.56-10.764-.634-13.25,2.645-3.059,4.032.6,6.985,4.492,7.523,5.643.781,12.812-2.332,18.091-4.458a1.777,1.777,0,0,0,1.658-.651c.117-.046.233-.09.347-.133,7.012,6.943,14.265,13.631,21.469,20.167h-.222a18.6,18.6,0,0,0-5.912-2.331c-4.862-.919-10.509-.628-14.224,3.049-3.7,3.661-4.757,9.782-.538,13.455,8.443,7.352,19.353-10.992,23.367-11.945,7.317,6.569,15.008,12.661,22.809,18.617a13.3,13.3,0,0,0-2.645-.4c-7.359-.317-24.077,9.562-14.627,17.923,8.235,7.286,16.522-8,22.562-13.515,7.347,5.547,14.73,11.051,21.927,16.795a20.034,20.034,0,0,0-11.392.67c-4.094,1.477-10.643,4.97-7.718,10.449,2.974,5.573,10.9,2.551,15,.517,2.238-1.109,6.655-4.688,10.613-6.305,11.515,9.785,21.619,20.7,29.519,33.763A120.977,120.977,0,0,1-5.583,236.788C-3.742,242.59-.207,252.312-.41,260,1.667,244.524-4.5,226.391-10.832,212.988ZM-172,29.766c-.613,0-2.912-6.215-3.636-7.135a20.724,20.724,0,0,0-8.2-5.945c-5.036-2.177-11.433.989-8.366,7.281,2.449,5.023,9.082,6.034,14.827,6.034C-175.412,30-173.553,29.882-172,29.766Z" transform="translate(598.657 166.101) rotate(3)" fill="#f2f2f2"/>
      <path id="Leaf_Top" data-name="Leaf Top" d="M0,187.541a21.86,21.86,0,0,0,1,4A8.448,8.448,0,0,1,0,187.541Zm8-33.535a83.426,83.426,0,0,1,17.288-23.47c-1.4-5.019-14.961-12.859-6.384-17.011,4.555-2.194,8.875,2.063,9.617,6.373.509,2.961-.7,6.586-1.922,9.372q3.289-3.129,6.8-6.035c3.225-2.678,6.518-5.269,9.84-7.825-4.979-5.144-9.2-19.328-2.056-21.242,10.545-2.816,4.548,15.923,3.636,19.446a.568.568,0,0,1-.473-.206c.041.328.09.681.153,1.037,6.357-4.864,12.8-9.62,19.048-14.613a27.139,27.139,0,0,1-1.922-2.806,30.332,30.332,0,0,1-3.721-6.01c-1.5-3.424-2.832-8.829,1.712-10.561,4.942-1.888,6.917,4.251,6.761,7.843-.108,2.485-.916,4.809-1.4,7.224-.151.753.1,4.2-.87,2.671a7.325,7.325,0,0,1-.032,1.216q1.683-1.351,3.344-2.732a1.284,1.284,0,0,1-.071-.418A1.256,1.256,0,0,1,69.2,95.182q2.2-1.859,4.342-3.781c3.026-2.722,6.1-5.523,9.153-8.389-.6-.567-.311-1.294-.868-1.892s-1.7-.969-2.357-1.531a16.543,16.543,0,0,1-3.941-5.368C73.979,71,72.108,64.305,77.2,63.071c5.253-1.274,7.544,5.193,7.667,9.169a100.122,100.122,0,0,1-1.5,10.135c5.655-5.326,11.232-10.868,16.32-16.536-1.447-.088-5.4-3.238-6.183-4.082-1.921-2.06-4.91-6.547-1.24-8.648,3.262-1.863,7,1.274,8.2,4.2a39.661,39.661,0,0,1,.7,6.862c2.109-2.407,4.127-4.832,6.016-7.273q1.887-2.433,3.559-5a2.342,2.342,0,0,1-.661-.715c-5.216-1.157-11.5-9.638-5.164-12.146,3.014-1.193,6.06,1.75,7.381,4.1a30.025,30.025,0,0,1,.917,4.709,97.142,97.142,0,0,0,7.873-18.019,1.141,1.141,0,0,1-.841-1.1c-2.479-1.575-4.432-2.881-6.07-5.748-1.017-1.78-2.8-5.82.5-6.608,4.3-1.024,6.626,5.523,6.806,8.7.021.369-.037,1.435-.1,2.41a1.454,1.454,0,0,1,.441.031c1.181-3.878,2.168-7.817,3-11.771-2.273-.857-2.037-12.906-.407-14.539,3.645-3.657,5.781,2.009,5.442,4.928a19.273,19.273,0,0,1-4.175,9.189c-.217.284-.158.274-.189-.14a.816.816,0,0,1-.224.451,51.727,51.727,0,0,1-.085,5.3,121.486,121.486,0,0,1-2.317,13.7q-.375,1.644-.831,3.255a27.1,27.1,0,0,1,5.526-3.12c2.606-1,6.593-2.013,9.02.032a4.191,4.191,0,0,1,.151,6.314c-2.16,2.153-5.881,1.877-8.65,1.513-1.253-.165-7.942-1.046-6.292-2.052a5.523,5.523,0,0,0-.669.274q-.263.787-.547,1.569c.039.025.071.051.112.076-.044-.022-.076-.046-.114-.068a60.926,60.926,0,0,1-7.721,14.666,14.65,14.65,0,0,1,3.525-.74c3.528-.257,10.757,2.822,6.592,7.24-3.993,4.234-9.593-.822-13.823-1.7a198.561,198.561,0,0,1-14.353,15.8,1.136,1.136,0,0,1,.667.611c1.969-.864,4.041-2.138,5.836-2.42,2.589-.4,7.859-.458,9.674,1.912,2.233,2.916-.439,5.051-3.281,5.441-4.119.564-9.355-1.687-13.209-3.224a1.3,1.3,0,0,1-1.21-.471l-.254-.1C87.9,84.444,82.6,89.281,77.341,94.007H77.5a13.667,13.667,0,0,1,4.316-1.686c3.55-.664,7.674-.454,10.385,2.2s3.473,7.073.394,9.729c-6.165,5.317-14.131-7.948-17.062-8.636-5.342,4.749-10.958,9.155-16.654,13.461a9.732,9.732,0,0,1,1.931-.286c5.373-.229,17.58,6.913,10.68,12.959-6.013,5.269-12.064-5.787-16.475-9.772-5.365,4.011-10.755,7.991-16.01,12.144a14.766,14.766,0,0,1,8.318.484c2.99,1.068,7.771,3.594,5.636,7.556-2.172,4.028-7.958,1.843-10.955.373-1.633-.8-4.858-3.39-7.748-4.559a100.276,100.276,0,0,0-21.554,24.412,87.074,87.074,0,0,0-8.537,18.825C2.827,175.412.246,182.441.393,188-1.122,176.81,3.383,163.7,8,154.006ZM125.252,21.058c.437,0,2.08-4.441,2.6-5.1a14.806,14.806,0,0,1,5.857-4.246c3.6-1.555,8.166.707,5.975,5.2-1.75,3.588-6.489,4.31-10.594,4.31C127.687,21.225,126.36,21.141,125.252,21.058Z" transform="translate(98.081 34.745) rotate(-3)" fill="#c1dee2" opacity="0.2"/>
      <g id="Plant_Right" data-name="Plant Right" transform="translate(482 208)" opacity="0.7">
        <path id="Leaf_Me_Alone_" data-name="Leaf Me Alone!" d="M-66.9.04C-53.253.763-37.294,10.453-37.4,25.364c-.075,10.834-1.525,21.493-1.022,32.371a87.174,87.174,0,0,0,5.23,25.389C-30.365,91-23.543,98.168-22.436,106.38c.706,5.233-.744,12.337-2.981,17.148-2.721,5.849-1.563,5.486,2.052,11.014,7.084,10.833,13.331,21.835,17.257,34.3,5.655,17.949,8.437,38.528,3.693,57.027-.6,2.349-1.921,10.868-5.269,11.121-3.74.283-1.509-4.433-1.147-5.995,2.309-9.962,4.346-18.669,3.918-29.078C-6.568,161.751-32.2,132.709-47.151,97.2c-.834-1.838-2.545-6.185-3.75-9.062-1.9-4.541-3.41-12.96-6.262-16.478-5.37-6.628-1.121,6.009-.194,8.434,1.172,3.067,2.474,6.333,3.72,9.043,5.689,12.555,12.069,26.278,17.947,39.221-31.7,3.8-49.6-35.715-55.335-61.061C-95.75,46.414-98.986-1.587-66.9.04" transform="matrix(0.995, -0.105, 0.105, 0.995, 94.356, 108.736)" fill="#69a1ac"/>
        <path id="Leaf_Me_Alone_2" data-name="Leaf Me Alone!" d="M101.805.121C78.983,1.932,64.331,16.992,57.511,38.056c-3.676,11.351-4.1,23.013-6.14,34.678-3.073,17.551-9.685,30.851-22.607,43.355a43.634,43.634,0,0,0-9.048,12.1A51.548,51.548,0,0,0,9.269,143.12c-3.4,7.5-4.362,16.508-.436,23.989,1.055,2.011,3.689,6.049,6.418,7.883C5.033,196.752-.585,220.584.048,244.386c.383,14.368,1.084,28.741,1.9,43.091.22,3.853,1.475,10.216,3.36,3.754,1.725-5.911-.438-15.189-.638-21.364-.974-30.081-1.806-57.431,10.576-85.536q1.948-4.418,4.109-8.766a2.913,2.913,0,0,0,.241-.165c.055.042.1.088.159.129.092-.163.217-.358.363-.575a7.753,7.753,0,0,0,1.112-1.559c1.1-1.522,2.341-3.31,2.348-4.289,0-.008,0-.019,0-.027A404.962,404.962,0,0,1,48.99,133.149c-.067.084,9.728-13.252,8.213-5.877-.73,3.554-7.935,10.323-10.845,14.087a350.971,350.971,0,0,0-20.277,29.25c-.845.486-2.039,2.871-2.9,4.647-.477.9-.922,1.807-1.359,2.6,22.257,7.354,39.57-7.459,51.376-24.687.014-.02.027-.041.04-.061,3.593-4.761,7.273-9.488,11.871-13.251,7.671-6.279,15.885-7.387,24.929-10.478,24.664-8.427,35.15-40.391,38.48-64.108C152.274,38.513,133.894-2.517,101.805.121" transform="translate(109 78)" fill="#89c5cc"/>
        <path id="Leaf_Me_Alone_3" data-name="Leaf Me Alone!" d="M98.087,2.282c-26.589,20.882-42.5,52.792-55.8,83.023-14.852,33.766-26.415,68.548-31.8,105.067-3.54,23.993-7.59,48.068-9.559,72.254a257.779,257.779,0,0,0-.884,25.861c.014.708.39,19.951,3.9,15.972,1.995-2.263-.353-19.956-.313-22.843a370.089,370.089,0,0,1,4.383-48.489c3.885-26.467,6.807-52.932,13.2-78.947a90.185,90.185,0,0,1,3.33-11.7c1.57-3.959.053-2.348,3.518-3.515,3.367-1.135,7.222-.364,10.764-1.884,14.049-6.03,23.5-25.263,30.518-37.769,8.021-14.3,13.872-29.93,18.971-45.449a336.062,336.062,0,0,0,9.4-34.547,92.5,92.5,0,0,1,2.607-11.168c.337-.963,1.575-2.575,1.662-3.457.185-1.867-.782-3.116-.655-4.689q-1.641,1.106-3.234,2.282" transform="translate(68.272 14.582) rotate(-8)" fill="#89c5cc"/>
        <path id="Base" d="M0,0A73,73,0,0,0,146,0" transform="translate(38 328)" fill="#89c5cc"/>
        <path id="Leaf_Me_Alone_4" data-name="Leaf Me Alone!" d="M76.483,91a11.207,11.207,0,0,1-7.65-2.688,15.352,15.352,0,0,1-4.122-6.626c-1.877-5.408-2.054-12.053-2.172-16.45C62.392,59.721,62,53.3,60.186,47.5a31.931,31.931,0,0,0-3.563-7.769,31.379,31.379,0,0,0-6.046-6.938c-1.234-1.067-2.55-2.082-3.823-3.064-1.136-.876-2.309-1.782-3.42-2.72l-.531-.447c-3.571-3-7.264-6.1-7.716-11.011-.252-2.727.187-4.732,1.306-5.959a5.652,5.652,0,0,1,4.422-1.571,18.19,18.19,0,0,1,3.757.46c.2.043.728.244,1.463.522,2.1.794,5.6,2.124,7.473,2.124.575,0,.953-.13,1.123-.385a1.117,1.117,0,0,0-.049-1.046c-.432-1.036-1.914-1.952-4.405-2.721-5.013-.545-9.746-1.035-12.565-1.035a9.33,9.33,0,0,0-1.823.13,27.633,27.633,0,0,0-13.45,7.5,47.763,47.763,0,0,0-9.281,13.386C7.395,38.59,5.232,51.546,4.446,58.233c-.213,1.811-.405,3.774-.589,6H0A130.161,130.161,0,0,1,1.43,49.776c1.095-6.476,3.876-18.963,10.2-29.828A44.266,44.266,0,0,1,21.592,7.824a27.7,27.7,0,0,1,13.828-6.2,20.47,20.47,0,0,1,2.23-.082c1.451,0,3.2.056,4.921.156A12.837,12.837,0,0,1,48.028.085C48.791.028,49.574,0,50.355,0A39.608,39.608,0,0,1,63.514,2.41,56.68,56.68,0,0,1,76.083,8.8a65.591,65.591,0,0,1,10.863,9.115A55.094,55.094,0,0,1,94.986,28.5c3.283,5.715,4.97,12.563,5.013,20.354a65.9,65.9,0,0,1-3.51,20.927,47.915,47.915,0,0,1-7.036,13.827c-3.776,4.853-8.079,7.34-12.788,7.394Z" transform="translate(113 264)" fill="#69a1ac"/>
      </g>
      <g id="Plant_Left" data-name="Plant Left" transform="translate(22 79)" opacity="0.5">
        <path id="Leaf" d="M65.223,23.445c4.2-5.992,12-21.21,17.915-23.351,3.81-1.379,2.7,12.886,2.746,15.607a228.013,228.013,0,0,1-2.107,31.416C81.5,65.937,74.045,82.7,63.822,98.715c-5.26,8.242-11.431,16.584-19.977,21.727-3.934,2.368-8.667,2.765-12.552,4.805-4.524,2.375-2.06.455-4.1,5.17-2.832,6.546-3.737,14.99-5.047,21.975C16.132,184.455,1.568,353.945,4.093,386.558c.224,2.891-3.807,3.582-4.008.053C-.984,367.9,8.27,238.322,12.94,195.947s9.394-79.812,14.132-94.473C32.819,83.687,43.2,62.3,51.84,45.711A197.235,197.235,0,0,1,65.223,23.445Z" transform="translate(113 88)" fill="#69a1ac"/>
        <path id="Leaf-2" data-name="Leaf" d="M100.414,2.278C111.349-5.75,123.186,9.4,113.29,17.43c-5.47,4.438-11.189,2.859-14.409-.839-2.09,2.548-4.046,5.211-5.926,7.461-5.727,6.856-11.139,13.876-16.312,21.059C65.9,60.035,56.689,75.8,47.06,91.278c-9.5,15.276-18.929,30.63-27.541,46.292C12.223,150.841,2.5,166.452,0,181c3.79-30.854,18.172-60.51,35.3-87.709C52.285,66.314,71.779,36.853,98.081,15.564A9.316,9.316,0,0,1,100.414,2.278Z" transform="translate(109 317)" fill="#c1dee2"/>
        <path id="Leaf-3" data-name="Leaf" d="M1.913.031c6.119,1.2,16.118,15.039,21.162,20.314a197.547,197.547,0,0,1,16.56,19.947,337.377,337.377,0,0,1,29.3,47.788,444.19,444.19,0,0,1,32.6,84.838,349.969,349.969,0,0,1,9.891,55.647c.353,3.523,4.047,30.688-1.276,31.42-4.787.659-3.309-20.626-3.54-23.522C104,203.8,96.177,172.015,85.3,141.226c-2.37-6.707-4.571-14.922-8.36-20.958-2.729-4.347-.02-2.831-4.815-4.477-4.118-1.414-8.81-1.068-13.027-2.8-9.161-3.757-16.5-11.05-22.925-18.385-12.5-14.257-22.4-29.68-27.558-47.948A230.852,230.852,0,0,1,1.658,15.9C1.281,13.2-2.028-.74,1.913.031Z" transform="translate(0 244)" fill="#69a1ac"/>
        <path id="Leaf-4" data-name="Leaf" d="M14.061,13.716C37.111,53.69,56.053,97.6,68.283,142.076c7.41,26.947,12.593,54.6,17.742,82.05C94,266.632,101.538,309.134,103.683,352.4c2.158,43.511,6.425,93.7-7.822,135.6,7.117-42.548.341-87.838-.859-130.65-.573-20.438-2.235-40.676-4.414-60.995-2.115-19.71-5.57-39.326-8.787-58.881q-2.351-14.286-4.889-28.537c-.5-2.836-.712-11.25-2.51-13.187S63.354,193,60.454,191.574a74.878,74.878,0,0,1-16.193-11.3c-9.319-8.291-17.426-19.123-23.825-29.8C5.631,125.764-.288,95.61.011,66.994.068,61.438,9,1.61,5.415.786Q5.739.407,6.028,0,10.1,6.823,14.061,13.716Z" transform="translate(12)" fill="#89c5cc"/>
        <path id="Leaf-5" data-name="Leaf" d="M164.846,3.887c.356-.513,2.67-4.081,1.5-3.853C168.724-.43,163.087,3.969,169,1.27c-2.808,2.652-1.187,6.1-1.15,9.665a86.554,86.554,0,0,1-2,17.211,118.022,118.022,0,0,1-8.022,26.013c-8.127,18.166-21.927,35.655-38.31,47.012-8.088,5.608-16.014,7.517-25.239,10.1-5.826,1.631-6.288,4.645-9.381,10.3-6.439,11.776-12.763,23.509-18.441,35.683-6.78,14.536-13.362,29.088-19.571,43.88C25.969,250.957,8.945,302.578,0,356c-.219-31.481,7.064-63.9,16.25-93.912,6.692-21.863,15.4-42.937,24.695-63.8,2.252-5.054,5.664-11.555,6.62-17.135.669-3.909-1.377-7.669-2.315-11.788-3.654-16.037-3.392-34-.184-50.128,3.538-17.779,13.768-26.031,31.074-28.549,6.329-.921,14.374-.584,20.177-3.282,6.323-2.939,8.931-12.6,12.526-18.8a255.666,255.666,0,0,1,34.306-46.665A111.285,111.285,0,0,1,154.888,11.15C157.513,9.053,163.058,6.47,164.846,3.887Z" transform="translate(110 154)" fill="#89c5cc"/>
        <path id="Base-2" data-name="Base" d="M.845,5.729A5,5,0,0,1,5.791,0H67.209a5,5,0,0,1,4.946,5.729L67.408,37.918A20,20,0,0,1,47.622,55H25.378A20,20,0,0,1,5.592,37.918Z" transform="translate(75 476)" fill="#c1dee2"/>
      </g>
      <g id="Maceta" transform="translate(32 523)">
        <path id="Base-3" data-name="Base" d="M0,0C0,21.287,1.68,38.544,24.228,38.544S48.456,21.287,48.456,0" transform="translate(15.418 48.456)" fill="#f2f2f2"/>
        <path id="Fill_27" data-name="Fill 27" d="M46.353,35.174a44.567,44.567,0,0,0-2.214,4.366,59.743,59.743,0,0,1,.606-9.228c.786-5.329,1.988-10.631,3.116-15.924.811-3.8.76-10.637,3.839-13.668.844-.655,1.047.63,1.047,1.188.011.118,0-2.277-.822-1.86-4.871,2.516-6.449,10.425-8.008,14.386a76.214,76.214,0,0,0-5.008,17.7,39.656,39.656,0,0,0-.336,4.554c-.166-.405-.321-.814-.493-1.218a82.22,82.22,0,0,0-11.337-18.96C25.578,15.054,10.934.649,9.788,2.854a1.52,1.52,0,0,0,.711.8c.021.024.022.011.009-.025.86,1.389,3.305,3.535,4.067,4.752a91.953,91.953,0,0,1,4.921,9.5c3.2,6.739,6.166,13.546,9.043,20.368.67,1.589,1.368,3.169,2.08,4.744C23.277,32.4,13.483,22.791,0,17.287c4.6,2.343,7.624,6.75,10.734,10.125,3.751,4.071,7.7,8.032,11.459,12.1,4.432,4.8,9.648,9.848,13.911,15.156,4.13,8.67,8.142,17.349,10.62,26.463-1.015-3.149-.08-7.5-.253-10.8A73,73,0,0,0,45.6,62.48a16.1,16.1,0,0,1,1.173,3.443c-.186-1.834-.4-3.656-.629-5.468.59-1.7,1.169-3.281,1.56-4.585a117.8,117.8,0,0,1,7.642-19.677A175.66,175.66,0,0,1,65.567,18.735c1.754-2.646,3.532-5.282,5.3-7.923,1.156-1.729,2.257-4.5,3.867-6.153-10.407,9.515-21.777,19.1-28.38,30.515" transform="translate(0 0)" fill="#f2f2f2"/>
      </g>
      <g id="Top_Leaves" data-name="Top Leaves" transform="translate(495)">
        <path id="Leaf-6" data-name="Leaf" d="M79.46,129.914c.238-10.386-4.017-19.958-8.727-28.992-9.169-17.587-13.755-28.109-12.273-49,.872-12.284,1.914-25.263-4.356-36.418C49.539,7.385,39.963-1.305,29.851.164,13.844,3.81,4.908,19.062,1.482,34.206c-4.246,18.77.616,32.774,14.79,44.8,7.987,6.775,12.492,13.754,14.67,24.072,1.743,8.251,1.248,17.713,4.229,25.648,4.457,11.862,12.5,19.106,24.608,21.309-4.368-23.512-10.5-47.806-20.343-69.6-.883-2.157-7.23-11.377-4.589-13.706,2.909-2.564,7.71,12.178,7.672,12.086,2.789,6.551,5.142,13.314,7.4,20.1-.012,0-.025,0-.038,0q3.5,10.459,6.783,21.109C57.512,123,58.3,126,59,129.028c1.03,4.449,1.152,16.166,4.073,19.645a6.3,6.3,0,0,0,1.9,1.586c1.17,4.906,2.262,9.823,3.219,14.75,2.5,12.868,3.944,26.067,2.324,39.152-.473,3.819-5.332,17.1-3.722,20.492,2.943,6.2,4.6-3.362,5.226-6.207,5.193-23.562,3.316-45.683-2.35-68.751,5.209-3.588,9.687-15.573,9.784-19.781" transform="matrix(0.951, -0.309, 0.309, 0.951, 98.917, 24.827)" fill="#f2f2f2"/>
        <path id="Leaf-7" data-name="Leaf" d="M-32.43.111c7.6,1.112,14.777,10.72,18.317,17.126,4.381,7.927,7.437,16.971,9.739,25.678C-.581,57.258-.069,73.178-.022,87.868c.006,1.77.375,23.393-2.153,23.039-2.5-.351-.918-22.8-1.132-27.444-.455-9.919.225-19.7-2.1-29.494a93.487,93.487,0,0,0-12.4-28.455c-.716-1.124-2.232-5.3-3.954-4.338-1.684.944,2.981,6.511,3.644,7.593a95.882,95.882,0,0,1,7.078,14.061A74.094,74.094,0,0,1-5.511,71.283c-5.785.888-10.825-2.5-12.766-8.144-1.677-4.879-1.84-10.554-3.745-15.167a22.5,22.5,0,0,0-5.95-8.157C-34.7,33.8-41.73,32.293-43.737,22.306c-1.573-7.829.38-23.786,11.307-22.2" transform="matrix(0.53, -0.848, 0.848, 0.53, 70.222, 107.869)" fill="#f2f2f2"/>
        <path id="Leaf_Me_Alone_5" data-name="Leaf Me Alone!" d="M-46.737,55a6.893,6.893,0,0,0,4.674-1.624,9.265,9.265,0,0,0,2.518-4c1.146-3.267,1.255-7.284,1.327-9.943a39.821,39.821,0,0,1,1.437-10.722,18.817,18.817,0,0,1,5.87-8.888c.756-.647,1.562-1.262,2.342-1.857.692-.528,1.407-1.074,2.084-1.639l.307-.256.02-.016c2.181-1.813,4.435-3.688,4.711-6.653a4.6,4.6,0,0,0-.788-3.59,3.464,3.464,0,0,0-2.711-.96,11.231,11.231,0,0,0-2.3.278c-.121.026-.446.148-.9.316A17.682,17.682,0,0,1-32.7,6.723c-.353,0-.584-.079-.687-.235a.671.671,0,0,1,.032-.63c.264-.627,1.17-1.18,2.692-1.644,3.061-.33,5.952-.626,7.674-.626a5.756,5.756,0,0,1,1.116.079A16.933,16.933,0,0,1-13.657,8.2a28.866,28.866,0,0,1,5.67,8.09A61.282,61.282,0,0,1-2.726,35.2c.135,1.14.258,2.385.374,3.8H0a77.286,77.286,0,0,0-.884-8.915,55.666,55.666,0,0,0-6.23-18.027A26.821,26.821,0,0,0-13.2,4.729,17.014,17.014,0,0,0-21.649.979,12.676,12.676,0,0,0-23.01.93c-.889,0-1.957.034-3.009.1A7.886,7.886,0,0,0-29.353.051C-29.819.017-30.3,0-30.775,0a24.431,24.431,0,0,0-8.04,1.457,34.771,34.771,0,0,0-7.679,3.864A39.976,39.976,0,0,0-53.13,10.83a33.34,33.34,0,0,0-4.912,6.393,24.464,24.464,0,0,0-3.062,12.3A39.448,39.448,0,0,0-58.96,42.173a28.844,28.844,0,0,0,4.3,8.357c2.307,2.933,4.936,4.436,7.813,4.469Z" transform="translate(61.105 41)" fill="#f2f2f2"/>
      </g>
    </g>
    <g id="Persona_B" data-name="Persona B" transform="translate(160 233)">
      <g id="Bottom_Standing_Baggy_Pants" data-name="Bottom/Standing/Baggy Pants" transform="translate(126 324)">
        <path id="Leg" d="M0,0,49.082,124.227,82,229.25H95L44.674,0Z" transform="translate(134)" fill="#ffd5a6"/>
        <path id="Leg-2" data-name="Leg" d="M93.441,0c-.523,43.654-8.145,102.427-9.363,105.149S0,174.358,0,174.358l8.953,9.581s97.768-57.005,102.292-64.608S130.5,41.763,142.324,0Z" transform="translate(30.676)" fill="#ffd5a6"/>
        <g id="Left_Shoe" data-name="Left Shoe" transform="translate(47.216 152.78) rotate(50)">
          <path id="shoe" d="M4.474,5.033A2,2,0,0,0,1.908,6.381L0,13.106A64.242,64.242,0,0,0,.9,21H57.3s2.2-7.268-2.538-7.848-7.87-1.047-7.87-1.047L20.68.419a1,1,0,0,0-1.332.532L17.663,5.039s-4.385,2.046-7.127,2.046Z" transform="translate(1 19)" fill="#e4e4e4"/>
        </g>
        <g id="Right_Shoe" data-name="Right Shoe" transform="translate(208 199)">
          <path id="shoe-2" data-name="shoe" d="M4.474,5.033A2,2,0,0,0,1.908,6.381L0,13.106A64.242,64.242,0,0,0,.9,21H57.3s2.2-7.268-2.538-7.848-7.87-1.047-7.87-1.047L20.68.419a1,1,0,0,0-1.332.532L17.663,5.039s-4.385,2.046-7.127,2.046Z" transform="translate(1 19)" fill="#e4e4e4"/>
        </g>
        <path id="Pant" d="M39.356,218.433l61.8-6.708L55.356,0H0Z" transform="translate(127.644 0)" fill="#69a1ac"/>
        <path id="Pant-2" data-name="Pant" d="M0,158.9l40.54,47.985s64.05-69.954,74.683-91.29S134.339,0,134.339,0H72.018s-4.634,82.926-6.248,86.785S0,158.9,0,158.9Z" transform="translate(43.46)" fill="#89c5cc"/>
      </g>
      <g id="Head_Front_Curly" data-name="Head/Front/Curly" transform="translate(217 118)">
        <g id="Head" transform="translate(54 31)">
          <path id="Head-2" data-name="Head" d="M-.52,73.247,8.2,34.412C3.624,29.017.538,22.417,1.057,15.026c1.5-21.4,31.292-16.692,37.086-5.891s5.107,38.2-2.382,40.129c-2.907.749-9.009-1.016-15.3-4.708l5.85,34.988Z" fill="#ffd5a6"/>
        </g>
        <path id="hair" d="M72.776,11.16A5.191,5.191,0,0,0,69.14,7.474,4.788,4.788,0,0,0,67.8,7.341c-.161.006-.206.053-.282-.06a1.48,1.48,0,0,1-.08-.386,7.282,7.282,0,0,0-.272-.9A7.354,7.354,0,0,0,65.4,3.357,8.929,8.929,0,0,0,60.032.82a7.819,7.819,0,0,0-3.224.44,12.767,12.767,0,0,0-1.565.669c-.153.077-.648.452-.8.427-.169-.027-.51-.447-.647-.553A9.478,9.478,0,0,0,47.872,0c-2.392.018-4.7.137-6.69,1.6a13.38,13.38,0,0,0-1.207,1c-.2.187-.4.382-.583.584q-.169.183-.327.375c-.179.218-.15.289-.4.137a4.973,4.973,0,0,0-3.193-.718,7.146,7.146,0,0,0-1.928.545c-.209.09-.694.447-.917.45s-.7-.328-.927-.412A7.6,7.6,0,0,0,27.846,3.2a9.948,9.948,0,0,0-3.777,1.485,5.078,5.078,0,0,0-1.4,1.273c-.165.227-.313.468-.5.678-.109.123-.326.25-.384.406a8.3,8.3,0,0,0-1.6-.707,3.944,3.944,0,0,0-2.253.086,8.958,8.958,0,0,0-3.552,2.524,10.086,10.086,0,0,0-1.315,1.766q-.268.455-.492.934a3.474,3.474,0,0,1-.216.487c-.123.179-.206.183-.429.261a6.93,6.93,0,0,0-2.951,1.976,6.8,6.8,0,0,0-1.528,3.24,1.651,1.651,0,0,1-.061.4c-.056.052-.284.029-.37.039a7.787,7.787,0,0,0-.887.156,7.321,7.321,0,0,0-1.559.561A8.148,8.148,0,0,0,.576,23.536a9.676,9.676,0,0,0,.151,6.624,6.472,6.472,0,0,0,.492.97c.118.189.156.19.079.388-.085.221-.241.436-.342.651A9.352,9.352,0,0,0,.25,34.385a10.388,10.388,0,0,0-.122,3.829,5.527,5.527,0,0,0,.591,1.68,4.819,4.819,0,0,0,.518.752c.1.121.21.237.323.348a2.155,2.155,0,0,1,.2.189c.134.172.162.031.093.284a11.335,11.335,0,0,1-.451,1.048c-.138.355-.264.715-.378,1.078a15.906,15.906,0,0,0-.55,2.247,7.056,7.056,0,0,0,.5,4.365,4.367,4.367,0,0,0,1.235,1.47,4.584,4.584,0,0,0,.811.493c.147.07.335.1.4.242s-.035.457-.059.628a10.466,10.466,0,0,0,.123,4.509,6.23,6.23,0,0,0,2.469,3.315,7.683,7.683,0,0,0,7.68.218A8.063,8.063,0,0,0,15.353,59.9c1.315,1.771,4.022,1.714,5.944,1.21a8.538,8.538,0,0,0,5.424-4.482c1.514,1.843,4.691,1.245,5.741-.754a4.784,4.784,0,0,0,.484-1.574c.039-.287.014-.576.044-.861a4.449,4.449,0,0,1,.419-1.066,5.886,5.886,0,0,0,.447-2.125,10.789,10.789,0,0,0-.082-1.141,3.921,3.921,0,0,1,.116-1,4.585,4.585,0,0,1-1.941-.243,3.833,3.833,0,0,1-1.5-1.055,8.756,8.756,0,0,1-1.888-3.529c-.854-2.8-.5-6.149,2.308-7.683,1.31-.715,5.234-.712,6.794-.359,1.64.371,3.5,3.991,3.591,4.331.057.211.028.471.222.611.425.308,1.126-.227,1.44-.491a5.678,5.678,0,0,0,1.261-1.678,20.755,20.755,0,0,0,1.73-4.243c.32-1.131.524-2.3.942-3.4a5.2,5.2,0,0,1,2.091-2.7,18.409,18.409,0,0,1,3.6-1.456,8.928,8.928,0,0,0,3.327-1.828,4.6,4.6,0,0,0,.571-.636c.131-.183.26-.532.459-.648.31-.18.761.288,1.029.458a11.891,11.891,0,0,1,3.311,3.286,20.447,20.447,0,0,1,2.2,3.912,11.313,11.313,0,0,0,1.478,3.263c.343.385,2.894.618,3.72.282a4.7,4.7,0,0,0,2.029-1.756,2.728,2.728,0,0,0,.23-1.788c-.071-.361-.217-.7-.3-1.052a3.279,3.279,0,0,0-.273-.851,2.1,2.1,0,0,0-1.309-1.043,6.147,6.147,0,0,0,1.414-1.917,8.229,8.229,0,0,0,.732-2.5,3.033,3.033,0,0,0-.405-1.946,5.124,5.124,0,0,0-1.661-1.379A10.807,10.807,0,0,0,71.4,17.552,7.864,7.864,0,0,0,72.776,11.16Z" transform="translate(30 14)" fill="#533401"/>
      </g>
      <g id="Body_Long_Sleeve" data-name="Body/Long Sleeve" transform="translate(152 222)">
        <path id="Skin" d="M1.227,127.994c-1.116-.688-2.338-3.28.615-5.3C9.2,117.644,19.8,108.814,21.236,105.908c2.93-5.945,28.571-82.459,28.571-82.459l21.9.083s-36.017,81.05-37.56,84.874c-2.314,5.734,2.583,14.468,4.676,19.161-3.3,1.477-4.834-.409-6.512-2.293-1.789-2.011-3.745-4.02-8.184-1.954-5.68,2.643-10.377,6.838-15.975,6.837A12.99,12.99,0,0,1,1.227,127.994ZM173.837,14.311,213.32,8.925A86.089,86.089,0,0,1,235.118,0c1.867-.054,4.837.625.412,4.313s-8.913,7.768-8.124,9.736,4.9,1.236,5.585,4.263q.682,3.027-20.032.984L180.921,32Z" transform="translate(18.163 51)" fill="#ffd5a6"/>
        <path id="Clothes_Back" data-name="Clothes Back" d="M0,.356,17.179,0c7.536,37.688,32.551,59.721,83.138,47.1l11.1,48.411c-47.4,10.391-91.133-5.126-104.3-56.344C3.714,25.9.728,12.055,0,.356Z" transform="matrix(0.996, 0.087, -0.087, 0.996, 127.98, 4.645)" fill="#afb9c5"/>
        <path id="Clothes" d="M0,147Q17.855,52,75.374,0h1.7l.014.016,25.977,5.949c0,44.68,14.233,73.185,21.533,106.034H54.442c-.988,11.35-1.6,23.019-1.912,35Z" transform="translate(42.402)" fill="#c5cfd6"/>
        <path id="Shade" d="M14.259,63.741H0c2.142-24.6,5.918-45.99,11.544-65.4-.77,12.956-1.03,24.666-.772,34.8.328,12.906,1.5,23.2,3.487,30.595Z" transform="translate(96.844 48.259)" fill="rgba(0,0,0,0.1)"/>
      </g>
    </g>
  </g>
</svg>
