<svg width="33" height="31" viewBox="0 0 33 31" fill="none" xmlns="http://www.w3.org/2000/svg">
<path d="M0.306178 4.74901C1.37538 4.74901 3.87276 4.31427 8.50506 6.05282C13.0238 7.74769 15.5432 15.9894 14.5566 17.6358C13.57 19.2823 8.14879 17.3516 5.65334 15.6134C2.73611 13.5815 -1.11968 4.74861 0.306178 4.74901Z" fill="url(#paint0_linear)"/>
<path d="M13.72 15.2773H15.675C16.2147 15.2773 16.6523 15.5643 16.6523 15.9185C16.1299 17.9774 15.8027 20.0832 15.675 22.2065C15.4308 25.894 16.2147 30.6681 15.675 30.6681H13.72C13.1803 30.6681 13.0629 22.4895 12.512 18.7452C11.9611 15.001 11.5168 15.6949 11.5168 15.6949C11.5168 15.3408 13.1803 15.2773 13.72 15.2773Z" fill="#17A398"/>
<path d="M30.5842 5.83406C31.2801 4.53192 31.8925 3.18476 32.4175 1.80114C31.1611 -0.468615 22.5447 -0.787818 18.5358 1.97146C14.1233 5.00826 10.7257 16.7052 11.6778 17.8212C12.63 18.9373 16.4214 19.1711 22.3229 15.6956C25.1052 14.0563 29.0541 8.66877 30.5842 5.83406Z" fill="url(#paint1_linear)"/>
<defs>
<linearGradient id="paint0_linear" x1="9.60001" y1="15.9154" x2="-10.3121" y2="-8.39483" gradientUnits="userSpaceOnUse">
<stop stop-color="#56D1B4"/>
<stop offset="0.679" stop-color="#518659"/>
<stop offset="1" stop-color="#395E3F"/>
</linearGradient>
<linearGradient id="paint1_linear" x1="21.8819" y1="19.978" x2="35.5661" y2="1.89731" gradientUnits="userSpaceOnUse">
<stop stop-color="#56D1B4"/>
<stop offset="0.847" stop-color="#539E77"/>
<stop offset="1" stop-color="#2C5C44"/>
</linearGradient>
</defs>
</svg>